<?xml version="1.0" encoding="utf-8"?>
<!-- Generator: Adobe Illustrator 16.0.0, SVG Export Plug-In . SVG Version: 6.00 Build 0)  -->
<!DOCTYPE svg PUBLIC "-//W3C//DTD SVG 1.1//EN" "http://www.w3.org/Graphics/SVG/1.1/DTD/svg11.dtd">
<svg version="1.1" id="Layer_1" xmlns="http://www.w3.org/2000/svg" xmlns:xlink="http://www.w3.org/1999/xlink" x="0px" y="0px"
	 width="152.604px" height="149.516px" viewBox="1208.225 0 152.604 149.516" enable-background="new 1208.225 0 152.604 149.516"
	 xml:space="preserve">
<rect x="1277.135" y="18.259" width="56.667" height="111.667"/>
<g>
	<path id="Meetup_2_" fill="#F9F9F9" d="M1310.441,205.352 M991.729,116.879c-4.515-12.438-7.437-26.543-10.245-40.354
		c-3.642-17.74-7.387-35.751-13.752-49.814c-0.748,0.071-1.499,0.771-2.223,0.771c-2.246,0-4.206,0.527-6.158,0.218
		c-1.854-0.324-3.719,1.591-5.918,1.591c-0.2,0-0.42,0-0.629,0c-0.573,0-1.086-2.229-1.33-2.391
		c-10.146,13.72-13.633,32.243-18.219,51.028c-2.534-4.443-4.855-9.012-7.162-13.683c-4.067-8.216-8.278-16.643-13.044-23.4
		c-1.333-0.114-2.64-0.124-3.881-0.124c-5.458,0-10.415,0.98-15.073,2.339l-0.24,12.605c-0.509,21.649-0.946,40.35,4.514,57.987
		c1.014,0.172,2.043,0.26,3.065,0.26c6.537,0,12.325-3.199,14.836-4.479c0.399-5.531-0.288-9.85-0.998-14.441
		c-0.381-2.357-0.766-4.721,0.481-7.797c3.792,4.922,7.123,10.314,10.445,15.707c2.116,3.418,4.23,6.816,5.849,9.758
		c1.095,0.111,2.126,0.152,3.113,0.152c2.559,0,4.816-0.318,7.063-0.623c2.346-0.311,4.66-0.609,7.317-0.609l1.501,0.549
		c3.004-6.676,3.173-16.486,3.328-25.982c0.139-8.721,0.299-17.716,4.169-24.419c4.229,19.468,9.987,38.392,17.572,57.802
		c2.669-0.365,5.628-1.279,8.358-2.121c2.034-0.635,3.877-1.23,5.338-1.23C990.554,116.184,991.2,116.5,991.729,116.879z"/>
</g>
<g>
	<path id="Meetup_3_" d="M1482.542,205.352 M1163.83,116.879c-4.515-12.438-7.437-26.543-10.245-40.354
		c-3.642-17.74-7.387-35.751-13.752-49.814c-0.748,0.071-1.499,0.771-2.223,0.771c-2.246,0-4.206,0.527-6.158,0.218
		c-1.854-0.324-3.719,1.591-5.918,1.591c-0.2,0-0.42,0-0.629,0c-0.573,0-1.086-2.229-1.33-2.391
		c-10.146,13.72-13.633,32.243-18.219,51.028c-2.534-4.443-4.855-9.012-7.162-13.683c-4.067-8.216-8.278-16.643-13.044-23.4
		c-1.333-0.114-2.64-0.124-3.881-0.124c-5.458,0-10.415,0.98-15.073,2.339l-0.24,12.605c-0.509,21.649-0.946,40.35,4.514,57.987
		c1.014,0.172,2.043,0.26,3.065,0.26c6.537,0,12.325-3.199,14.836-4.479c0.399-5.531-0.288-9.85-0.998-14.441
		c-0.381-2.357-0.766-4.721,0.481-7.797c3.792,4.922,7.123,10.314,10.445,15.707c2.116,3.418,4.23,6.816,5.849,9.758
		c1.095,0.111,2.126,0.152,3.113,0.152c2.559,0,4.816-0.318,7.063-0.623c2.346-0.311,4.66-0.609,7.317-0.609l1.501,0.549
		c3.004-6.676,3.173-16.486,3.328-25.982c0.139-8.721,0.299-17.716,4.169-24.419c4.229,19.468,9.987,38.392,17.572,57.802
		c2.669-0.365,5.628-1.279,8.358-2.121c2.034-0.635,3.877-1.23,5.338-1.23C1162.656,116.184,1163.302,116.5,1163.83,116.879z"/>
</g>
<path fill="#FCFCFC" d="M1340.213,19.82c-4.588-4.589-10.115-6.884-16.578-6.884h-78.214c-6.463,0-11.99,2.295-16.58,6.884
	c-4.59,4.59-6.885,10.117-6.885,16.58v78.214c0,6.463,2.295,11.99,6.885,16.58s10.117,6.885,16.58,6.885h78.214
	c6.463,0,11.99-2.295,16.578-6.885c4.59-4.59,6.885-10.117,6.885-16.58V36.4C1347.098,29.937,1344.803,24.408,1340.213,19.82z
	 M1328.442,77.299h-14.258v51.734h-21.346V77.299h-10.673V59.456h10.673V48.782c0-7.659,1.793-13.443,5.377-17.354
	s9.504-5.866,17.761-5.866h14.258v17.843h-8.961c-3.042,0-4.983,0.529-5.826,1.589c-0.842,1.059-1.263,2.919-1.263,5.581v8.88
	h16.132L1328.442,77.299z"/>
</svg>
