<?xml version="1.0" encoding="utf-8"?>
<!-- Generator: Adobe Illustrator 16.0.0, SVG Export Plug-In . SVG Version: 6.00 Build 0)  -->
<!DOCTYPE svg PUBLIC "-//W3C//DTD SVG 1.1//EN" "http://www.w3.org/Graphics/SVG/1.1/DTD/svg11.dtd">
<svg version="1.1" id="Layer_1" xmlns="http://www.w3.org/2000/svg" xmlns:xlink="http://www.w3.org/1999/xlink" x="0px" y="0px"
	 width="152.604px" height="149.516px" viewBox="1035.621 0 152.604 149.516" enable-background="new 1035.621 0 152.604 149.516"
	 xml:space="preserve">
<g>
	<path id="Meetup_2_" fill="#F9F9F9" d="M1310.441,205.352 M991.729,116.879c-4.515-12.438-7.437-26.543-10.245-40.354
		c-3.642-17.74-7.387-35.751-13.752-49.814c-0.748,0.071-1.499,0.771-2.223,0.771c-2.246,0-4.206,0.527-6.158,0.218
		c-1.854-0.324-3.719,1.591-5.918,1.591c-0.2,0-0.42,0-0.629,0c-0.573,0-1.086-2.229-1.33-2.391
		c-10.146,13.72-13.633,32.243-18.219,51.028c-2.534-4.443-4.855-9.012-7.162-13.683c-4.067-8.216-8.278-16.643-13.044-23.4
		c-1.333-0.114-2.64-0.124-3.881-0.124c-5.458,0-10.415,0.98-15.073,2.339l-0.24,12.605c-0.509,21.649-0.946,40.35,4.514,57.987
		c1.014,0.172,2.043,0.26,3.065,0.26c6.537,0,12.325-3.199,14.836-4.479c0.399-5.531-0.288-9.85-0.998-14.441
		c-0.381-2.357-0.766-4.721,0.481-7.797c3.792,4.922,7.123,10.314,10.445,15.707c2.116,3.418,4.23,6.816,5.849,9.758
		c1.095,0.111,2.126,0.152,3.113,0.152c2.559,0,4.816-0.318,7.063-0.623c2.346-0.311,4.66-0.609,7.317-0.609l1.501,0.549
		c3.004-6.676,3.173-16.486,3.328-25.982c0.139-8.721,0.299-17.716,4.169-24.419c4.229,19.468,9.987,38.392,17.572,57.802
		c2.669-0.365,5.628-1.279,8.358-2.121c2.034-0.635,3.877-1.23,5.338-1.23C990.554,116.184,991.2,116.5,991.729,116.879z"/>
</g>
<g>
	<g id="XMLID_9_">
		<g>
			<path fill="#FFFFFF" stroke="#FCFCFC" stroke-miterlimit="10" d="M1187.222,125.289v0.027
				c-0.02,13.133-11.938,23.738-26.666,23.738L1187.222,125.289z"/>
			<polygon fill="#FFFFFF" stroke="#FCFCFC" stroke-miterlimit="10" points="1187.044,25.288 1187.222,125.289 1160.556,149.059 
				1061.214,149.059 1035.798,124.315 1035.621,25.288 1061.035,0.545 1161.64,0.545 			"/>
			<path fill="#FFFFFF" stroke="#FCFCFC" stroke-miterlimit="10" d="M1187.054,25.288h-0.01L1161.64,0.545
				C1175.683,0.545,1187.054,11.609,1187.054,25.288z"/>
			<path fill="#FFFFFF" stroke="#FCFCFC" stroke-miterlimit="10" d="M1061.214,149.059c-14.053,0-25.415-11.062-25.415-24.744
				L1061.214,149.059z"/>
			<path fill="#FFFFFF" stroke="#FCFCFC" stroke-miterlimit="10" d="M1035.621,25.288c0-13.68,11.371-24.743,25.415-24.743
				L1035.621,25.288z"/>
		</g>
		<g>
			<path fill="#FFFFFF" stroke="#FCFCFC" stroke-miterlimit="10" d="M1187.054,25.288c0-13.68-11.371-24.743-25.414-24.743"/>
			<path fill="#FFFFFF" stroke="#FCFCFC" stroke-miterlimit="10" d="M1187.222,125.319c-0.02,13.135-11.938,23.74-26.666,23.74"/>
			<polyline fill="#FFFFFF" stroke="#FCFCFC" stroke-miterlimit="10" points="1187.044,25.288 1187.222,125.289 1187.222,125.319 
				1187.222,125.727 			"/>
			<path fill="#FFFFFF" stroke="#FCFCFC" stroke-miterlimit="10" d="M1035.621,25.288c0-13.68,11.371-24.743,25.415-24.743"/>
			<line fill="#FFFFFF" stroke="#FCFCFC" stroke-miterlimit="10" x1="1161.64" y1="0.545" x2="1061.035" y2="0.545"/>
			<path fill="#FFFFFF" stroke="#FCFCFC" stroke-miterlimit="10" d="M1035.798,124.315c0,13.682,11.361,24.744,25.415,24.744"/>
			<polyline fill="#FFFFFF" stroke="#FCFCFC" stroke-miterlimit="10" points="1035.621,25.288 1035.798,124.315 1035.798,125.727 
							"/>
			<polyline fill="#FFFFFF" stroke="#FCFCFC" stroke-miterlimit="10" points="1161.808,149.059 1160.556,149.059 1061.214,149.059 
							"/>
		</g>
	</g>
</g>
<g>
	<path id="Meetup_3_" d="M1482.542,205.352 M1163.83,116.879c-4.515-12.438-7.437-26.543-10.245-40.354
		c-3.642-17.74-7.387-35.751-13.752-49.814c-0.748,0.071-1.499,0.771-2.223,0.771c-2.246,0-4.206,0.527-6.158,0.218
		c-1.854-0.324-3.719,1.591-5.918,1.591c-0.2,0-0.42,0-0.629,0c-0.573,0-1.086-2.229-1.33-2.391
		c-10.146,13.72-13.633,32.243-18.219,51.028c-2.534-4.443-4.855-9.012-7.162-13.683c-4.067-8.216-8.278-16.643-13.044-23.4
		c-1.333-0.114-2.64-0.124-3.881-0.124c-5.458,0-10.415,0.98-15.073,2.339l-0.24,12.605c-0.509,21.649-0.946,40.35,4.514,57.987
		c1.014,0.172,2.043,0.26,3.065,0.26c6.537,0,12.325-3.199,14.836-4.479c0.399-5.531-0.288-9.85-0.998-14.441
		c-0.381-2.357-0.766-4.721,0.481-7.797c3.792,4.922,7.123,10.314,10.445,15.707c2.116,3.418,4.23,6.816,5.849,9.758
		c1.095,0.111,2.126,0.152,3.113,0.152c2.559,0,4.816-0.318,7.063-0.623c2.346-0.311,4.66-0.609,7.317-0.609l1.501,0.549
		c3.004-6.676,3.173-16.486,3.328-25.982c0.139-8.721,0.299-17.716,4.169-24.419c4.229,19.468,9.987,38.392,17.572,57.802
		c2.669-0.365,5.628-1.279,8.358-2.121c2.034-0.635,3.877-1.23,5.338-1.23C1162.656,116.184,1163.302,116.5,1163.83,116.879z"/>
</g>
</svg>
